<svg width="85" height="55" viewBox="0 0 85 55" fill="none" xmlns="http://www.w3.org/2000/svg">
<rect x="60.5" y="30.5" width="24" height="24" stroke="black"/>
<path d="M78.3536 42.8536C78.5488 42.6583 78.5488 42.3417 78.3536 42.1464L75.1716 38.9645C74.9763 38.7692 74.6597 38.7692 74.4645 38.9645C74.2692 39.1597 74.2692 39.4763 74.4645 39.6716L77.2929 42.5L74.4645 45.3284C74.2692 45.5237 74.2692 45.8403 74.4645 46.0355C74.6597 46.2308 74.9763 46.2308 75.1716 46.0355L78.3536 42.8536ZM65 43H78V42H65V43Z" fill="black"/>
<rect x="30.5" y="30.5" width="24" height="24" stroke="black"/>
<path d="M42.1464 49.3536C42.3417 49.5488 42.6583 49.5488 42.8536 49.3536L46.0355 46.1716C46.2308 45.9763 46.2308 45.6597 46.0355 45.4645C45.8403 45.2692 45.5237 45.2692 45.3284 45.4645L42.5 48.2929L39.6716 45.4645C39.4763 45.2692 39.1597 45.2692 38.9645 45.4645C38.7692 45.6597 38.7692 45.9763 38.9645 46.1716L42.1464 49.3536ZM42 36V49H43V36H42Z" fill="black"/>
<rect x="30.5" y="0.5" width="24" height="24" stroke="black"/>
<path d="M42.8536 5.64645C42.6583 5.45118 42.3417 5.45118 42.1464 5.64645L38.9645 8.82843C38.7692 9.02369 38.7692 9.34027 38.9645 9.53553C39.1597 9.7308 39.4763 9.7308 39.6716 9.53553L42.5 6.70711L45.3284 9.53553C45.5237 9.7308 45.8403 9.7308 46.0355 9.53553C46.2308 9.34027 46.2308 9.02369 46.0355 8.82843L42.8536 5.64645ZM43 19V6H42V19H43Z" fill="black"/>
<rect x="0.5" y="30.5" width="24" height="24" stroke="black"/>
<path d="M5.64645 42.1464C5.45118 42.3417 5.45118 42.6583 5.64645 42.8536L8.82843 46.0355C9.02369 46.2308 9.34027 46.2308 9.53553 46.0355C9.7308 45.8403 9.7308 45.5237 9.53553 45.3284L6.70711 42.5L9.53553 39.6716C9.7308 39.4763 9.7308 39.1597 9.53553 38.9645C9.34027 38.7692 9.02369 38.7692 8.82843 38.9645L5.64645 42.1464ZM19 42H6V43H19V42Z" fill="black"/>
</svg>
