<svg width="85" height="55" viewBox="0 0 85 55" fill="none" xmlns="http://www.w3.org/2000/svg">
<rect x="60.5" y="30.5" width="24" height="24" stroke="black"/>
<path d="M69.8071 47V37.7578H72.416C73.2201 37.7578 73.931 37.9355 74.5488 38.291C75.1667 38.6465 75.6427 39.1522 75.9771 39.8081C76.3156 40.464 76.487 41.2173 76.4912 42.0679V42.6582C76.4912 43.5299 76.3219 44.2938 75.9834 44.9497C75.6491 45.6056 75.1688 46.1092 74.5425 46.4604C73.9204 46.8117 73.1947 46.9915 72.3652 47H69.8071ZM71.0259 38.7607V46.0034H72.3081C73.2476 46.0034 73.9775 45.7114 74.498 45.1274C75.0228 44.5435 75.2852 43.7119 75.2852 42.6328V42.0933C75.2852 41.0438 75.0376 40.2292 74.5425 39.6494C74.0516 39.0654 73.3534 38.7692 72.4478 38.7607H71.0259Z" fill="black"/>
<rect x="30.5" y="30.5" width="24" height="24" stroke="black"/>
<path d="M41.9365 42.8804C40.8913 42.5799 40.1296 42.2118 39.6514 41.7759C39.1774 41.3358 38.9404 40.7941 38.9404 40.1509C38.9404 39.423 39.2303 38.8221 39.8101 38.3481C40.394 37.87 41.1515 37.6309 42.0825 37.6309C42.7173 37.6309 43.2822 37.7536 43.7773 37.999C44.2767 38.2445 44.6618 38.583 44.9326 39.0146C45.2077 39.4463 45.3452 39.9181 45.3452 40.4302H44.1201C44.1201 39.8716 43.9424 39.4336 43.5869 39.1162C43.2314 38.7946 42.73 38.6338 42.0825 38.6338C41.4816 38.6338 41.0119 38.7671 40.6733 39.0337C40.339 39.2961 40.1719 39.6621 40.1719 40.1318C40.1719 40.5085 40.3306 40.828 40.6479 41.0903C40.9696 41.3485 41.5133 41.5854 42.2793 41.8013C43.0495 42.0171 43.6504 42.2562 44.082 42.5186C44.5179 42.7767 44.8395 43.0793 45.0469 43.4263C45.2585 43.7733 45.3643 44.1816 45.3643 44.6514C45.3643 45.4004 45.0723 46.0013 44.4883 46.4541C43.9043 46.9027 43.1235 47.127 42.146 47.127C41.5112 47.127 40.9188 47.0063 40.3687 46.7651C39.8185 46.5197 39.3932 46.1854 39.0928 45.7622C38.7965 45.339 38.6484 44.8587 38.6484 44.3213H39.8735C39.8735 44.8799 40.0788 45.3221 40.4893 45.6479C40.904 45.9696 41.4562 46.1304 42.146 46.1304C42.7892 46.1304 43.2822 45.9992 43.625 45.7368C43.9678 45.4744 44.1392 45.1169 44.1392 44.6641C44.1392 44.2113 43.9805 43.8621 43.6631 43.6167C43.3457 43.367 42.7702 43.1216 41.9365 42.8804Z" fill="black"/>
<rect x="30.5" y="0.5" width="24" height="24" stroke="black"/>
<path d="M39.6221 14.0864L39.7998 15.3052L40.0601 14.207L41.8882 7.75781H42.9165L44.7002 14.207L44.9541 15.3242L45.1509 14.0801L46.5854 7.75781H47.8105L45.5698 17H44.459L42.5547 10.2651L42.4087 9.56055L42.2627 10.2651L40.2886 17H39.1777L36.9434 7.75781H38.1621L39.6221 14.0864Z" fill="black"/>
<rect x="0.5" y="30.5" width="24" height="24" stroke="black"/>
<path d="M13.7871 44.7734H10.2129L9.41016 47H8.25L11.5078 38.4688H12.4922L15.7559 47H14.6016L13.7871 44.7734ZM10.5527 43.8477H13.4531L12 39.8574L10.5527 43.8477Z" fill="black"/>
</svg>
